# xmcd
#
# Track frame offsets:
#	150
#	10547
#	22725
#	35770
#	47957
#	60190
#	71277
#	82765
#	95230
#	108392
#	118845
#	130202
#	142912
#	154690
#	166040
#	180167
#	191430
#	200925
#	212952
#	223667
#	235820
#	251195
#	262332
#	273872
#
# Disc length: 3823 seconds
#
# Revision: 0
# Processed by: cddbd v1.5.2PL0 Copyright (c) Steve Scherf et al.
# Submitted via: audiograbber 1.83.01
#
DISCID=500eed18
DTITLE=Bob Wills - 24 Greatest Hits
DYEAR=1977
DGENRE=Country
TTITLE0=Bubbles In My Beer
TTITLE1=Spanish Fandango
TTITLE2=Still Water Runs The Deepest
TTITLE3=Cross My Heart I Love You
TTITLE4=Keeper Of My Heart
TTITLE5=Playboy Chimes
TTITLE6=I Ain't Got Nobody
TTITLE7=Boot Heel Drag
TTITLE8=Faded Love
TTITLE9=I Betcha My Heart I Love You
TTITLE10=I Laugh WHen I Think How I Cried Over You
TTITLE11=I'm Dotting Each I With A Teardrop
TTITLE12=End Of The Line
TTITLE13=I'm Tired Of Living This Lie
TTITLE14=Sittin' On Top Of The World
TTITLE15=Silver Bell
TTITLE16=Send Me A Red Rose
TTITLE17=I Won't Be Back Tonight
TTITLE18=Bowman Hop
TTITLE19=Bottle Baby Boogie
TTITLE20=St. Louis Blues
TTITLE21=So Long I'll See You Later
TTITLE22=Waltzing In Old San Antone
TTITLE23=A Maiden's Prayer
EXTD=
EXTT0=
EXTT1=
EXTT2=
EXTT3=
EXTT4=
EXTT5=
EXTT6=
EXTT7=
EXTT8=
EXTT9=
EXTT10=
EXTT11=
EXTT12=
EXTT13=
EXTT14=
EXTT15=
EXTT16=
EXTT17=
EXTT18=
EXTT19=
EXTT20=
EXTT21=
EXTT22=
EXTT23=
PLAYORDER=
